<svg xmlns="http://www.w3.org/2000/svg" width="1477.543" height="524" viewBox="0 0 1477.543 524"><path id="Path_27606" data-name="Path 27606" d="M-54.663,238.584c0,170.163,76.4,238.923,159.048,238.923,81.262,0,164.609-106.961,164.609-275.039C268.995,33,193.984-36.455,112.721-36.455c-87.51,0-167.384,106.961-167.384,275.039Zm92.38,0c0-117.375,37.046-217.811,75.941-217.811,33.337,0,62.967,70.568,62.967,181.695,0,118.072-49.74,226.913-85.162,226.913-34.729,0-53.749-79.669-53.745-190.8Zm372.476,221.5a29.44,29.44,0,0,0,32-29.844c-1.172-67.461-2.2-136.6-2.2-208.32,0-64.59,1.388-114.6,4.166-181.274,47.921-4.166,90.34,18.391,90.34,18.391V-21S451.795-40.618,387.2-35.757c-66.675,5.554-148.627-.776-148.627-.776l14.973,84.721s74.177-6.193,121.408-11.75c-3.473,82.65-5.222,133.647-5.222,190.6,0,78.483-18.648,154.622-14.481,228.246Zm316.445,14.645L807.7,455.281,716.716-15.62,588.227-26.731,463.9,476.813l140.018,10.653-16.392-132.9,103.488-4.166ZM667.893,24.69l12.014,252.789-77.79,2.779Zm367.292-61.145c-24.307,52.785-76.4,149.328-131.962,241.008,0-80.568,2.085-152.8,6.945-213.224L815.016-17.7c-4.864,65.981-6.945,155.576-6.945,245.868,0,73.623,1.388,145.856,4.86,221.56l95.152,10.418c-4.166-67.372-4.86-138.911-4.86-205.585,45.146,83.347,96.54,158.358,154.188,214.615l63.9-72.232c-49.312-43.065-137.6-100.258-176.493-162.073,54.87-84.735,150.8-182.419,177.884-236.6Zm95.988,14.58C1120.755,86.478,1115.2,179.545,1115.2,290.672c0,84.041,60.424,175.027,151.409,175.027,138.213,0,156.273-181.972,156.273-264.621,0-70.841-20.035-124.433-24.9-195.971l-41.909-20.869A24.136,24.136,0,0,0,1321.21,7.211c3.7,64.518,6.518,131.07,6.518,193.866,0,56.955-6.251,182.666-61.121,182.666-34.031,0-56.257-47.231-56.257-93.071,0-94.783,3.674-175.922,11.477-263.49a40.486,40.486,0,0,0-36.485-43.875Z" transform="translate(54.663 36.533)" fill="#f2f4f7"></path></svg>